# Blender v2.79 (sub 0) OBJ File: 'section.blend'
# www.blender.org
mtllib section.mtl
o Cylinder_Cylinder.002
v 0.000000 5.000000 -5.000000
v 0.000000 5.000000 5.000000
v 3.535534 3.535534 -5.000000
v 3.535534 3.535534 5.000000
v 5.000000 0.000000 -5.000000
v 5.000000 -0.000000 5.000000
v 3.535534 -3.535534 -5.000000
v 3.535534 -3.535534 5.000000
v -0.000000 -5.000000 -5.000000
v -0.000000 -5.000000 5.000000
v -3.535534 -3.535533 -5.000000
v -3.535534 -3.535533 5.000000
v -5.000000 0.000000 -5.000000
v -5.000000 -0.000000 5.000000
v -3.535534 3.535534 -5.000000
v -3.535534 3.535533 5.000000
v 0.000000 4.000000 -5.000000
v 0.000000 4.000000 5.000000
v 2.828451 2.828451 -5.000000
v 2.828451 2.828450 5.000000
v 4.000000 0.000000 -5.000000
v 4.000000 -0.000000 5.000000
v 2.828451 -2.828450 -5.000000
v 2.828451 -2.828451 5.000000
v -0.000000 -4.000000 -5.000000
v -0.000000 -4.000000 5.000000
v -2.828451 -2.828449 -5.000000
v -2.828451 -2.828450 5.000000
v -4.000000 0.000000 -5.000000
v -4.000000 -0.000000 5.000000
v -2.828451 2.828450 -5.000000
v -2.828451 2.828450 5.000000
vn 0.3827 0.9239 0.0000
vn 0.9239 0.3827 0.0000
vn 0.9239 -0.3827 -0.0000
vn 0.3827 -0.9239 0.0000
vn -0.3827 -0.9239 -0.0000
vn -0.9239 -0.3827 -0.0000
vn -0.9239 0.3827 0.0000
vn -0.3827 0.9239 0.0000
vn -0.0000 0.0000 -1.0000
vn -0.0000 0.0000 1.0000
usemtl None
s off
f 1//1 2//1 4//1 3//1
f 3//2 4//2 6//2 5//2
f 5//3 6//3 8//3 7//3
f 7//4 8//4 10//4 9//4
f 9//5 10//5 12//5 11//5
f 11//6 12//6 14//6 13//6
f 13//7 14//7 16//7 15//7
f 15//8 16//8 2//8 1//8
f 17//5 19//5 20//5 18//5
f 19//6 21//6 22//6 20//6
f 21//7 23//7 24//7 22//7
f 23//8 25//8 26//8 24//8
f 25//1 27//1 28//1 26//1
f 27//2 29//2 30//2 28//2
f 29//3 31//3 32//3 30//3
f 31//4 17//4 18//4 32//4
f 1//9 3//9 19//9 17//9
f 4//10 2//10 18//10 20//10
f 3//9 5//9 21//9 19//9
f 6//10 4//10 20//10 22//10
f 5//9 7//9 23//9 21//9
f 8//10 6//10 22//10 24//10
f 7//9 9//9 25//9 23//9
f 10//10 8//10 24//10 26//10
f 9//9 11//9 27//9 25//9
f 12//10 10//10 26//10 28//10
f 11//9 13//9 29//9 27//9
f 14//10 12//10 28//10 30//10
f 13//9 15//9 31//9 29//9
f 16//10 14//10 30//10 32//10
f 15//9 1//9 17//9 31//9
f 2//10 16//10 32//10 18//10
